<svg width="32" height="32" viewBox="0 0 32 32" fill="none" xmlns="http://www.w3.org/2000/svg">
<rect width="32" height="32" rx="8" fill="#4BD0BD"/>
<g clip-path="url(#clip0_66_1253)">
<path d="M8.64406 21.8299C9.13904 21.0578 9.98205 20.5967 10.8992 20.5967C11.8163 20.5967 12.6593 21.0578 13.1542 21.8299L14.3469 23.6906C14.5448 23.9993 14.6361 24.3559 14.611 24.7218C14.5859 25.0877 14.4467 25.4284 14.2084 25.7074C13.97 25.9861 13.655 26.1766 13.2974 26.2583C12.9398 26.3401 12.5732 26.3052 12.2373 26.1575L12.2148 26.1475C11.3697 25.7835 10.404 25.7868 9.56109 26.1575C9.34365 26.2531 9.11328 26.3015 8.88081 26.3015C8.75442 26.3015 8.62728 26.2871 8.50131 26.2584C8.14371 26.1768 7.82866 25.9862 7.59015 25.7075C7.35181 25.4287 7.2125 25.0879 7.18732 24.7219C7.16214 24.3559 7.25345 23.9994 7.45134 23.6905L8.64406 21.8299Z" fill="white"/>
<path d="M14.0257 21.8272C13.6709 21.6909 13.4013 21.405 13.2667 21.022C13.1385 20.6577 13.149 20.2463 13.2963 19.8636C13.4437 19.4811 13.7117 19.1689 14.0511 18.9844C14.4076 18.7906 14.7993 18.759 15.1535 18.8956C15.8662 19.1696 16.1933 20.0503 15.8825 20.8592C15.6343 21.5031 15.0553 21.9095 14.4699 21.9095C14.3204 21.9095 14.1705 21.883 14.0257 21.8272Z" fill="white"/>
<path d="M11.7114 20.3696C10.8205 20.3696 10.0957 19.5438 10.0957 18.5288C10.0957 17.5135 10.8205 16.6875 11.7114 16.6875C12.6023 16.6875 13.3271 17.5135 13.3271 18.5288C13.3271 19.5438 12.6023 20.3696 11.7114 20.3696Z" fill="white"/>
<path d="M8.92098 20.8219L8.9209 20.8219C8.78385 20.8673 8.64403 20.8891 8.5048 20.8891C7.85507 20.8891 7.22187 20.4162 6.98025 19.6894C6.84111 19.271 6.85026 18.8287 7.00602 18.4439C7.169 18.0411 7.47104 17.7487 7.85658 17.6205C8.24221 17.4924 8.65922 17.5458 9.03092 17.7709C9.386 17.9859 9.65808 18.3348 9.79706 18.7531C10.0904 19.6357 9.69735 20.5637 8.92098 20.8219Z" fill="white"/>
<path d="M5.51827 20.6069L5.51852 20.6066C6.13293 20.1528 7.0518 20.3495 7.567 21.0454C8.08171 21.7416 8.00122 22.6776 7.38774 23.1318C7.16401 23.2976 6.89965 23.3768 6.62908 23.3768C6.15752 23.3768 5.6669 23.1361 5.33893 22.6935C4.82431 21.9972 4.90471 21.0612 5.51827 20.6069Z" fill="white"/>
</g>
<path d="M22.9165 18.2543C21.8804 17.0488 20.5289 16.3207 19.2336 15.5016C16.6692 13.8813 15.412 11.4228 15.0352 8.49444C14.8362 6.94718 15.4882 5.89309 16.7994 5.26551C17.626 4.8697 18.4377 4.94695 19.2515 5.2962C20.8665 5.99046 22.1281 7.14826 23.2075 8.48491C24.868 10.5423 26.1708 12.8113 26.9635 15.3545C27.081 15.7302 27.0535 15.9418 26.6693 16.1471C25.4279 16.8128 24.2108 17.523 22.9165 18.2543Z" fill="white"/>
<path d="M27.7829 17.4658C28.7565 18.6543 29.6254 19.847 29.8582 21.3678C29.9207 21.7764 29.909 22.2166 29.8297 22.622C29.5651 23.9681 28.3724 24.6846 27.0431 24.3131C25.752 23.9512 24.9826 23.0029 24.4449 21.8526C24.1782 21.2821 24.0026 20.6662 23.8354 20.0566C23.7983 19.9222 23.9253 19.665 24.0544 19.5751C24.4439 19.3052 24.8683 19.0872 25.2831 18.8554C26.098 18.3993 26.914 17.9484 27.7829 17.4658Z" fill="white"/>
<defs>
<clipPath id="clip0_66_1253">
<rect width="11" height="11" fill="white" transform="matrix(-1 -8.74228e-08 -8.74228e-08 1 16 16)"/>
</clipPath>
</defs>
</svg>
